<svg xmlns="http://www.w3.org/2000/svg" width="128" height="128" viewBox="0 0 128 128" role="img" aria-label="figo">
  <defs>
    <linearGradient id="figoGrad" x1="0" y1="0" x2="128" y2="128" gradientUnits="userSpaceOnUse">
      <stop offset="0" stop-color="#FF8A4C"/>
      <stop offset="0.5" stop-color="#F0476B"/>
      <stop offset="1" stop-color="#6D54F2"/>
    </linearGradient>
  </defs>
  <rect x="0" y="0" width="128" height="128" rx="30" fill="url(#figoGrad)"/>
  <!-- solid white fig silhouette (legible down to favicon sizes) -->
  <g transform="translate(64,66) scale(0.92) translate(-64,-64)">
    <path d="M64 30 L63 20" stroke="#FFFFFF" stroke-width="5" stroke-linecap="round"/>
    <path d="M66 27 C74 16 88 15 95 19 C90 31 74 33 66 27 Z" fill="#FFFFFF"/>
    <path d="M64 31 C55 33 45 45 40 60 C34 78 30 93 44 107 C50 113 57 117 64 117 C71 117 78 113 84 107 C98 93 94 78 88 60 C83 45 73 33 64 31 Z" fill="#FFFFFF"/>
  </g>
</svg>
